PathFileType	4	(X/Y/Z)	C:\Users\u0088756\Documents\PostDoc\Conferences\Amsterdam_2018\Resources\Resources\MoCap\subject01_walk1_m.trc
DataRate	CameraRate	NumFrames	NumMarkers	Units	OrigDataRate	OrigDataStartFrame	OrigNumFrames
60.000000	60.000000	13	41	m	60.000000	19	151
Frame#	Times		R.ASIS		L.ASIS		V.Sacral		R.Thigh.Upper		R.Thigh.Front		R.Thigh.Rear		L.Thigh.Upper		L.Thigh.Front		L.Thigh.Rear		R.Shank.Upper		R.Shank.Front		R.Shank.Rear		L.Shank.Upper		L.Shank.Front		L.Shank.Rear		R.Heel		R.Midfoot.Sup		R.Midfoot.Lat		R.Toe.Tip		L.Heel		L.Midfoot.Sup		L.Midfoot.Lat		L.Toe.Tip		Sternum		R.Acromium		L.Acromium		R.Bicep		L.Bicep		R.Elbow		L.Elbow		R.Wrist.Med		R.Wrist.Lat		L.Wrist.Med		L.Wrist.Lat		R.Toe.Lat		R.Toe.Med		L.Toe.Lat		L.Toe.Med		R.Temple		L.Temple		Top.Head
			X1	Y1	Z1	X2	Y2	Z2	X3	Y3	Z3	X4	Y4	Z4	X5	Y5	Z5	X6	Y6	Z6	X7	Y7	Z7	X8	Y8	Z8	X9	Y9	Z9	X10	Y10	Z10	X11	Y11	Z11	X12	Y12	Z12	X13	Y13	Z13	X14	Y14	Z14	X15	Y15	Z15	X16	Y16	Z16	X17	Y17	Z17	X18	Y18	Z18	X19	Y19	Z19	X20	Y20	Z20	X21	Y21	Z21	X22	Y22	Z22	X23	Y23	Z23	X24	Y24	Z24	X25	Y25	Z25	X26	Y26	Z26	X27	Y27	Z27	X28	Y28	Z28	X29	Y29	Z29	X30	Y30	Z30	X31	Y31	Z31	X32	Y32	Z32	X33	Y33	Z33	X34	Y34	Z34	X35	Y35	Z35	X36	Y36	Z36	X37	Y37	Z37	X38	Y38	Z38	X39	Y39	Z39	X40	Y40	Z40	X41	Y41	Z41

19	0.3	633.41	1086.5	118.33	648.43	1070	-141.61	442.94	1075.2	-11.381	656.11	765.87	185.73	743.48	717.49	109.02	677.28	646.19	188.35	609.94	764.03	-187.73	699.21	732.55	-118.32	612.75	654.61	-165.72	593.16	527.69	172.86	629.29	442.03	132.39	541.07	458.64	176.56	604.54	440.58	-155.97	648.13	390.44	-99.718	581.44	397.73	-161.53	282.56	306.24	59.948	381.55	194.79	62.685	340.87	203.77	160.85	434.69	72.571	132.63	498.31	76.707	-58.641	668.94	75.239	-28.903	653.51	67.94	-126.41	781.4	49.768	-58.362	664.78	1385.7	-31.925	555.9	1485	168.6	608.9	1489.5	-247.2	549.3	1286.1	223.8	640.98	1249.4	-261.86	496.08	1188.8	253.34	597.88	1149.8	-296.26	616.95	947.34	269.77	571.67	938.74	316.1	718.17	930.49	-237.39	676.27	915.75	-299.11	368.49	121.35	191.99	406.5	107.5	89.942	716.05	41.886	-133.92	730.96	51.166	-32.72	731.25	1607.2	45.359	746.9	1608	-93.363	743.75	1782.5	-19.348
20	0.317	630.11	1087.6	116.43	644.92	1070	-143.31	440.56	1076.1	-12.094	663.67	771.68	183.93	748.89	723.59	106.72	688.92	652	187.21	599.56	764.33	-188.13	689.21	731.1	-119.91	601.33	655.01	-167.2	609.11	529.2	170.26	647.6	445.85	131.48	559.24	457.61	175.47	588.29	440.8	-157.05	631.11	390.22	-100.17	565.17	398.36	-162.08	305.67	294.91	61.142	410.5	189.36	61.322	370.87	194.99	160.15	471.72	69.837	129.14	479.73	76.975	-58.925	650.14	75.19	-29.197	634.6	67.816	-126.67	762.43	49.283	-58.671	662.61	1386.2	-32.898	551.22	1485	168.09	608.57	1491.2	-248.51	543.24	1287.7	222.24	642.26	1252.2	-262.39	489.79	1191	251.21	600.8	1151.1	-296.59	609.8	949.46	269.3	563.64	940.43	315.26	726.09	935.94	-236.47	684.99	919.49	-297.62	403.53	113.13	189.92	441.18	103.27	86.992	697.1	41.62	-134.18	711.95	50.952	-32.97	730.08	1608.5	44.154	745.15	1609.1	-93.229	742.47	1783.6	-19.488
21	0.333	629.55	1089.8	114.35	641.76	1069.5	-146.04	437.91	1076.6	-12.858	669.48	776.64	184.91	756.32	731.74	104.54	698.19	657.26	185.97	589.18	764.71	-188.03	679.88	730.29	-123	588.55	655.86	-168.23	621.92	530.25	169.86	664.78	448.92	130.42	576.42	456.43	174.65	571.76	441.23	-157.38	616.25	390.77	-102.03	549	399.12	-162.68	329.85	280.21	63.526	441.12	181.93	60.489	402.87	183.65	159.97	511.48	65.893	125.1	461.2	77.292	-59.145	631.23	75.222	-29.553	615.75	67.574	-126.92	743.34	48.871	-58.878	661.35	1387.4	-33.657	550.88	1486.3	166.29	608.37	1493.1	-248.74	538.83	1288.5	220.9	642.08	1253.5	-262.8	483.41	1191	249.79	603.05	1152.2	-298.05	603.7	950.7	268.24	555.29	941.33	313.44	733.53	941.63	-234.94	693.87	923.03	-296.11	439.68	102.99	187.34	478.19	97.774	84.301	678.12	41.434	-134.55	693.03	50.763	-33.189	728.01	1608.2	44.661	744.07	1609.9	-93.734	740.65	1784.3	-19.291
22	0.35	627.2	1090.2	112.22	638.09	1068.8	-147.44	434.91	1076.8	-13.949	673.79	781.08	184.36	760.11	736.9	102.84	705.88	662.07	184.43	579.02	765.26	-188.09	669.9	728.77	-124.89	577.11	656.55	-168.92	635.3	531.06	171.01	680.07	451.9	128.23	592.21	454.36	175.73	555.9	442.01	-157.82	599.7	390.68	-103.17	532.8	399.99	-163.21	355.39	262.35	66.554	473.44	172.79	60.402	436.86	170.4	160.42	553.6	61.566	121.64	442.67	77.702	-59.311	612.25	75.269	-29.937	596.91	67.249	-127.23	724.2	48.541	-59.069	660.06	1387.4	-34.157	548.14	1485.4	165.86	607.68	1493.9	-249.04	532.51	1288.6	219.58	643.73	1255.7	-264.79	476.73	1192.2	247.75	605.85	1152.8	-299.71	597.02	951.02	268.04	550.06	942.58	312.67	741.55	947.15	-233.72	702.2	926.24	-294.18	482.4	93.145	187.09	517.1	91.493	82.523	659.05	41.203	-134.95	674.12	50.532	-33.386	727.56	1608.8	44.159	742.87	1610.1	-93.883	740.29	1784.3	-18.97
23	0.367	624.83	1091.3	111.28	634.64	1068.4	-148.72	431.53	1076.8	-15.663	676.54	784.34	184.09	764.5	742.68	100.23	712.84	665.98	182.77	569.17	765.92	-188.77	660.5	727.22	-126.99	564.23	657.1	-168.52	644.71	530.09	170.01	695.97	454.02	127.25	608.69	450.97	176.05	540.4	443.06	-158.61	584.32	390.73	-104.56	516.49	400.92	-163.58	382.69	241.75	69.601	507.49	162.35	61.162	472.62	156.03	161.55	597.59	57.502	119.74	424.04	78.264	-59.612	593.29	75.313	-30.344	578.02	66.958	-127.64	705.05	48.21	-59.307	657.31	1386.8	-34.916	546.48	1485.4	164.95	605.33	1494.5	-249.15	527.65	1288.3	218.26	643.92	1256.1	-265.35	471.8	1192.6	246.31	606.21	1153.5	-300.93	592.08	951.52	266.83	544.09	942.66	310.73	748.77	952.29	-231.94	710.44	929.8	-293.05	525.71	82.531	187.13	557.62	84.828	82.101	639.91	40.858	-135.34	655.15	50.209	-33.579	726.3	1608	44.441	741.5	1609.7	-94.075	738.79	1783.6	-18.539
24	0.383	621.87	1091.4	109.74	633.66	1068.2	-150.96	427.92	1076.7	-17.962	679.11	786.46	182.92	765.83	746.31	98.249	717.24	669.13	181.31	559.74	766.55	-190.11	649.88	726.19	-128.23	553.56	657.28	-169.53	654.31	527.95	169.14	710.2	455.67	126.43	622.61	446.63	174.95	524.12	443.18	-158.47	570.79	391.47	-105.69	500.24	401.83	-163.84	412.14	219.05	72.189	543.36	151.1	62.743	509.91	141.36	163.33	642.99	54.215	119.98	405.32	78.994	-60.096	574.49	75.403	-30.809	559.13	66.777	-128.15	685.89	47.808	-59.563	655.59	1386.3	-35.061	543.56	1484.6	164.48	605.71	1494.7	-249.89	524.13	1287.6	217.86	643.73	1256.6	-266.09	467.26	1193.1	244.58	607.44	1153.2	-302.1	587.74	951.99	266.58	538.26	942.75	309.23	755.88	957.93	-229.98	718.58	933.41	-290.46	569.64	72.343	186.65	599.78	78.248	83.233	620.8	40.437	-135.75	636.03	49.804	-33.798	725.18	1606.9	44.515	740.95	1609.1	-93.584	738.16	1782.7	-18.14
25	0.4	619.1	1090.5	108.94	629.89	1067	-151.38	424.36	1076.4	-20.186	681.61	787.76	180.13	766.45	749	95.398	719.93	671.34	180.64	550.75	767.05	-191.67	641.36	724.61	-129.55	542.13	657.6	-169.44	661.46	524.41	168.16	722.01	456.65	125.25	637.41	440.3	175.97	508.96	444.34	-159.04	553.8	391.44	-107.03	484.23	402.7	-164.05	444.02	195.08	74.133	581.04	139.69	65.023	548.57	127.15	165.66	689.32	52.2	122.48	386.63	79.855	-60.495	556.05	75.629	-31.347	540.31	66.708	-128.66	666.73	47.353	-59.773	653.85	1384.6	-35.064	540.32	1483	164.63	602.51	1493.3	-248.65	521.75	1287.4	216.79	643.33	1256.4	-266.41	462.2	1191.8	243.77	608.15	1152.4	-302.24	583.11	951.48	265.7	533.73	942.03	308.06	761.52	962.65	-228.16	725.73	935.8	-288.47	614.12	64.864	190.03	643.6	72.343	85.886	601.78	40.04	-136.17	616.78	49.403	-34.063	723.19	1605.6	45.015	740.08	1607.9	-93.011	737.56	1781.5	-17.184
26	0.417	617.02	1089.7	108.02	626.49	1065.6	-152.54	421.2	1075.6	-21.441	679.82	788.11	179.68	765.24	750.58	93.134	721.48	672.42	178.65	542.23	767.36	-192.99	631.87	722.83	-130.51	531.36	658.07	-170.24	666.22	519.81	166.24	734.05	457.55	124.44	649.59	434.81	174.79	493.6	444.41	-159.07	537.58	391.3	-106.71	468.52	403.56	-164.23	478.44	170.85	75.531	620.32	128.88	67.829	588.49	114	168.4	736.05	51.969	126.92	368.05	80.813	-60.547	538.01	76.035	-31.927	521.64	66.733	-129	647.67	46.941	-59.924	652.04	1383.7	-35.208	540.13	1481.8	164.65	603.55	1492.5	-248.66	518.73	1286	216.83	642.79	1256.2	-266.31	459.02	1190.9	243.03	608.14	1151.5	-303.45	579.86	951.08	264.78	529.33	940.63	307.52	768.16	967.64	-226.54	732.98	939.04	-287.08	659.15	58.563	194.07	688.73	67.78	89.797	582.87	39.752	-136.56	597.57	49.125	-34.373	721.45	1603.7	45.337	738.91	1606.3	-92.203	736.72	1780.1	-16.706
27	0.433	614.65	1087.8	108.11	624.27	1063.8	-152.15	418.63	1074.5	-21.379	676.92	786.92	178.96	762.89	750.38	90.818	720.46	671.76	176.9	534.11	767.43	-193.86	623.24	721.5	-130.85	519.15	658.19	-169.09	671	515.2	165.14	742.15	457.08	124.12	660.39	427.15	174.16	478.45	445.31	-159.36	523.4	391.76	-108.01	453	404.44	-164.35	515.18	147.39	76.621	660.74	119.48	70.956	629.44	102.51	171.42	782.57	54.05	132.55	349.59	81.892	-60.333	520.12	76.516	-32.482	503.07	66.804	-129.08	628.8	46.657	-60.076	650.13	1381.5	-34.649	539.1	1480.5	164.7	601.78	1491.7	-248.92	513.76	1283.8	216.22	640.03	1255.4	-265.57	456.07	1189.7	242.5	608.93	1150.6	-303.41	576.48	949.62	264.3	526.11	939.12	306.24	772.82	971.81	-225.37	739.09	941.61	-285.13	705.13	54.734	198.67	734.5	65.263	94.483	564.01	39.584	-136.88	578.61	49.037	-34.745	721.38	1601.9	46.146	738.22	1604.6	-91.481	736.64	1778	-15.19
28	0.45	611.9	1085.7	108.2	621.59	1062.3	-152.31	416.6	1073	-20.322	673.83	784.38	177.17	761.75	748.61	86.741	717.6	669.64	175.78	526.3	767.21	-194.25	615.44	719.73	-131.2	510.63	658.04	-170.08	673	506.32	163.58	749.95	456.16	123.18	671.36	419.66	173.04	463.42	446.24	-159.76	507.77	391.67	-108	437.57	405.34	-164.35	553.78	125.73	77.683	701.57	112.26	74.165	671.01	93.293	174.55	828.24	58.984	138.38	331.19	83.147	-60.106	501.99	76.873	-32.946	484.36	66.786	-128.96	610.19	46.512	-60.304	648.01	1379.5	-33.876	538.28	1478.4	165.2	599.95	1489.7	-247.79	514.14	1282.6	216.06	640.8	1254.3	-266.61	453.54	1188	242.3	607.65	1149.6	-304.79	573.85	947.43	263.75	524.17	937.24	305.64	777.12	975.46	-224.13	743.67	943.69	-284.43	749.32	52.818	204.11	780.09	65.5	99.304	544.98	39.444	-137.14	560.03	49.116	-35.23	720.04	1598.9	46.676	736.93	1601.9	-90.876	735.67	1775.4	-14.514
29	0.467	608.32	1081.9	107.79	618.88	1060.6	-152.08	414.99	1071.3	-18.759	670.26	780.95	174.55	755.52	744.64	85.862	713.39	666.33	173.67	518.75	766.7	-194.26	606.92	717.88	-131.46	501.44	657.79	-170.01	674.39	497.89	161.71	755.55	454.95	121.91	680.72	410.98	172.03	448.62	446.73	-159.33	494.4	391.78	-109.1	422.29	406.28	-164.26	593.59	106.69	79.033	741.89	107.89	77.191	712.64	86.932	177.55	872.38	67.282	143.48	312.78	84.591	-59.976	483.41	77.022	-33.287	465.28	66.562	-128.78	591.74	46.446	-60.635	646.75	1377.3	-34.232	535.9	1475.8	166.27	598.4	1487.7	-247.05	511.27	1279.9	216.47	639.6	1252.5	-266.12	451.52	1185.8	242.44	607.8	1147.3	-303.27	571.24	944.68	262.89	522.76	934.56	305.22	780.4	978.73	-221.92	748.32	945.85	-281.73	794.14	53.743	207.66	824.61	69.129	103.59	525.55	39.226	-137.34	541.68	49.237	-35.821	717.92	1596.3	48.43	736.7	1599.3	-89.912	734.72	1773	-12.192
30	0.483	608.15	1079.4	108.31	616.27	1057.9	-151.92	413.66	1069.4	-17.027	665.85	776.68	171.79	748.72	738.78	84.277	706.29	661.82	172.43	511.43	766	-194.06	597.28	715.19	-130.03	492.23	657.6	-170.86	674.54	489.77	161	760.24	453.65	120.89	689.55	403.33	172.25	433.77	447.09	-159.45	479.35	391.78	-109.62	407.32	407.26	-164.15	633.77	90.844	81.016	780.67	106.74	79.774	753.65	83.847	180.28	914.19	79.284	147.04	294.32	86.157	-59.897	464.52	77.082	-33.495	445.92	66.2	-128.67	573.23	46.374	-61.038	644.55	1373.9	-32.935	535.9	1473.5	167.62	596.63	1485.6	-246.35	511.46	1277	217.48	638.18	1250.6	-265.82	450.08	1183	242.96	607.03	1145.5	-304.54	570.79	942.23	262.59	521.37	932.05	304.71	783.31	981.21	-220.83	752.07	946.58	-279.92	837.14	58.788	211.49	867	76.55	106.74	505.62	38.914	-137.47	523.28	49.232	-36.417	718.05	1593.5	49.688	735.91	1597.1	-88.246	734.51	1769.7	-11.092
31	0.5	607.29	1076.1	110.12	615.18	1055.4	-150.7	412.51	1067.2	-15.346	660.03	770.78	170.5	741.22	732.05	82.922	698.12	655.94	171.66	504.37	765.19	-193.81	589.53	713.34	-130.46	481.95	657.32	-170.3	676.14	480	159.79	762.41	452.91	119.67	698.73	396.18	172.08	419.99	447.48	-159.38	465.76	391.5	-109.96	392.82	408.31	-164.11	673.08	78.496	83.919	816.84	108.77	81.702	793.13	84.231	182.64	952.68	94.909	148.52	275.88	87.745	-59.814	445.63	77.266	-33.545	426.72	65.932	-128.8	554.49	46.22	-61.469	644.18	1371.6	-32.783	535.4	1469.8	168.79	594.54	1482.9	-244.4	510.64	1273.6	218.46	636.34	1248.6	-264.64	449.18	1179.6	243.89	606.38	1143.5	-302.53	570.36	939.22	262.11	521.54	928.91	304.73	785.82	982.59	-220.18	752.13	947.18	-278.58	877.91	66.539	213.76	906.11	87.658	108.34	485.36	38.551	-137.61	504.72	49.05	-36.939	717.28	1590.1	51.022	734.86	1593.2	-86.702	733.63	1766.6	-9.1562
